<?xml version="1.0" standalone="no"?><!DOCTYPE svg PUBLIC "-//W3C//DTD SVG 1.1//EN" "http://www.w3.org/Graphics/SVG/1.1/DTD/svg11.dtd"><svg class="icon" width="64px" height="64.00px" viewBox="0 0 1024 1024" version="1.1" xmlns="http://www.w3.org/2000/svg"><path d="M512 1024c-281.6 0-512-230.4-512-512s230.4-512 512-512 512 230.4 512 512c0 102.4-25.6 196.266667-85.333333 273.066667l-34.133334-25.6c51.2-76.8 76.8-162.133333 76.8-247.466667C981.333333 256 768 42.666667 512 42.666667S42.666667 256 42.666667 512 256 981.333333 512 981.333333c110.933333 0 221.866667-42.666667 307.2-110.933333l25.6 34.133333C750.933333 981.333333 640 1024 512 1024z" fill="#F0534C" /><path d="M305.493333 340.138667l30.208-30.208 374.101334 374.101333-30.208 30.208z" fill="#F0534C" /><path d="M307.285333 685.824l374.101334-374.101333 30.208 30.122666L337.493333 715.946667z" fill="#F0534C" /></svg>