<?xml version="1.0" standalone="no"?><!DOCTYPE svg PUBLIC "-//W3C//DTD SVG 1.1//EN" "http://www.w3.org/Graphics/SVG/1.1/DTD/svg11.dtd"><svg class="icon" width="64px" height="64.00px" viewBox="0 0 1024 1024" version="1.1" xmlns="http://www.w3.org/2000/svg"><path d="M667.904 307.456a256 256 0 0 1 9.6 511.829333l-9.6 0.170667H341.333333a42.666667 42.666667 0 0 1-4.992-85.077333L341.333333 734.122667h326.570667a170.666667 170.666667 0 0 0 8.533333-341.12l-8.533333-0.213334h-426.666667a42.666667 42.666667 0 0 1-4.949333-85.077333l4.949333-0.256h426.666667z" fill="#d4237a" /><path d="M314.368 180.266667A42.666667 42.666667 0 0 1 372.224 242.773333l-3.925333 3.626667L241.792 349.44l123.648 84.693333a42.666667 42.666667 0 0 1 13.824 54.698667l-2.730667 4.608a42.666667 42.666667 0 0 1-54.698666 13.824l-4.608-2.730667-147.157334-100.821333a64 64 0 0 1-9.088-98.005333l4.864-4.394667 148.522667-121.045333z" fill="#d4237a" /></svg>