<?xml version="1.0" standalone="no"?><!DOCTYPE svg PUBLIC "-//W3C//DTD SVG 1.1//EN" "http://www.w3.org/Graphics/SVG/1.1/DTD/svg11.dtd"><svg class="icon" width="64px" height="64.00px" viewBox="0 0 1024 1024" version="1.1" xmlns="http://www.w3.org/2000/svg"><path d="M512 996c-120 0-232-46.4-316.8-130.4C110.4 780.8 64 668.8 64 549.6s46.4-231.2 131.2-315.2S392 104 512 104s232 46.4 316.8 130.4S960 430.4 960 549.6s-46.4 231.2-131.2 315.2C744 949.6 632 996 512 996zM512 168c-102.4 0-199.2 40-271.2 112C168 352 128 448 128 549.6s40 197.6 112 270.4c72.8 72 168.8 112 271.2 112s199.2-40 271.2-112c72.8-72 112.8-168 112-270.4 0-102.4-40-197.6-112-270.4-71.2-72-168-111.2-270.4-111.2z" fill="#2c2c2c" /><path d="M736 517.6H288c-17.6 0-32 14.4-32 32s14.4 32 32 32h448c17.6 0 32-14.4 32-32s-14.4-32-32-32z" fill="#2c2c2c" /></svg>