<?xml version="1.0" standalone="no"?><!DOCTYPE svg PUBLIC "-//W3C//DTD SVG 1.1//EN" "http://www.w3.org/Graphics/SVG/1.1/DTD/svg11.dtd"><svg class="icon" width="64px" height="64.00px" viewBox="0 0 1024 1024" version="1.1" xmlns="http://www.w3.org/2000/svg"><path d="M0.2944 511.93066667c0 282.40746667 228.93653333 511.34506667 511.34506667 511.34506666s511.34506667-228.93653333 511.34506666-511.34506666c0 0 0 0 0 0 0-282.40853333-228.93653333-511.34506667-511.34506666-511.34506667-282.40746667 0-511.34506667 228.93653333-511.34506667 511.34506667z" fill="#D2966E" /><path d="M514.91946667 914.0288c18.72 0 36.84586667-1.04746667 54.50346666-3.216 34.7648-4.27093333 67.71946667-12.9056 99.8336-26.56533333 14.42453333-6.13333333 21.3728-22.61653333 15.6608-37.2128l-11.93386666-30.4992c-5.77706667-14.7616-22.3296-22.0864-37.17866667-16.5344-20.496 7.66293333-43.67893333 13.93813333-66.38293333 17.66293333-14.38933333 2.36053333-28.58666667 3.7056-41.7856 3.7056-136.26026667 0-263.43466667-79.94026667-263.43466667-259.8016 0-201.66293333 152.61013333-332.47253333 305.22133333-332.47253333 183.49653333 0 247.08373333 119.90826667 247.08373334 243.45066666 0 92.656-49.05173333 154.42773333-103.55733334 154.42773334-36.33386667 0-49.0528-21.8016-38.1536-67.2224l34.58133334-164.256c4.65066667-22.08853333-12.20266667-42.85973333-34.77546667-42.85973334h-26.18346667c-15.07946667 0-27.9648 9.392-33.12746666 22.6464l-5.89653334 15.50826667h-1.81653333c-9.3088-20.94293333-22.34666667-33.67893333-38.15253333-40.13653333-8.87253333-3.62666667-18.61653333-5.28213333-29.06773334-5.28213334-103.55733333 0-187.1296 110.82346667-187.1296 227.09866667 0 83.57333333 49.0528 139.8944 123.54346667 139.8944 29.28426667 0 66.82346667-15.3504 92.65493333-40.3264 6.21973333-6.01386667 11.76853333-12.57813333 16.352-19.6288h1.81653334c10.90133333 43.60426667 55.41226667 69.03786667 109.008 69.03786667 99.9232 0 216.1984-83.57333333 216.1984-252.5344 0-194.3968-128.99413333-332.47253333-330.65706667-332.47253334-4.25386667 0-8.4928 0.064-12.71786667 0.18133334-224.9824 6.15253333-408.77653333 175.3536-408.77653333 428.58346666-0.00106667 239.81653333 170.7776 348.82453333 354.27413333 348.82453334zM569.42293333 538.11946667l-7.26613333 41.62026666c-19.984 27.25226667-34.5184 36.33493333-50.87146667 36.33493334-27.25226667 0-41.7856-19.0752-41.7856-52.68693334 0-49.0528 29.06773333-119.90933333 76.304-119.90933333 8.9376 0 17.05066667 2.72746667 23.6192 7.26613333 5.44746667 3.76426667 9.83466667 8.77013333 12.71786667 14.53546667l-12.71786667 72.83946667z"  /><path d="M644.176 859.168c14.42453333-6.1344 21.3728-22.61653333 15.6608-37.2128l-11.93386667-30.49813333c-5.776-14.76266667-22.3296-22.08746667-37.1776-16.53546667-20.49706667 7.66293333-43.67893333 13.93813333-66.38293333 17.66293333v93.1456c34.76373333-4.26986667 67.7184-12.90453333 99.8336-26.56426666zM557.06026667 111.36c-4.25386667 0-8.4928 0.064-12.71786667 0.18133333v92.47466667c183.49653333 0 247.08266667 119.90933333 247.08266667 243.45066667 0 92.656-49.05173333 154.42773333-103.55626667 154.42773333-36.33493333 0-49.05386667-21.8016-38.1536-67.2224l34.58133333-164.256c4.6496-22.08853333-12.20373333-42.85973333-34.77546666-42.85973333h-26.18346667c-15.07946667 0.00106667-27.9648 9.39306667-33.12853333 22.6464l-5.89653334 15.50826666h-1.81653333c-9.30773333-20.94293333-22.34666667-33.67893333-38.15146667-40.13653333v100.09066667c5.4464 3.76426667 9.83466667 8.77013333 12.71786667 14.53546666l-12.71786667 72.8384v133.92106667c6.21866667-6.01386667 11.76853333-12.57813333 16.35093334-19.6288h1.81653333c10.90133333 43.6032 55.41226667 69.03786667 109.008 69.03786667 99.9232 0 216.1984-83.57333333 216.1984-252.5344-0.00106667-194.3968-128.99306667-332.4736-330.65706667-332.4736z" fill="#8D0D38" /><path d="M239.12213333 536.4896c0-201.66293333 152.61013333-332.47253333 305.22133334-332.47253333v-92.47466667c-224.9824 6.15253333-408.7776 175.3536-408.7776 428.58346667 0 239.81653333 170.77866667 348.82453333 354.27413333 348.82453333 18.72106667 0 36.84586667-1.04746667 54.50346667-3.216v-93.1456c-14.3904 2.36053333-28.58666667 3.7056-41.7856 3.7056-136.26133333-0.00106667-263.43466667-79.94026667-263.43466667-259.80266667z" fill="#A9294B" /><path d="M537.0752 554.65813333c-19.984 27.25226667-34.51946667 36.33493333-50.86933333 36.33493334-27.25333333 0-41.78453333-19.0752-41.78453334-52.68693334 0-49.0528 29.06666667-119.90933333 76.304-119.90933333 8.9376 0 17.05066667 2.72746667 23.6192 7.26613333v-100.09066666c-8.8736-3.62666667-18.61653333-5.2832-29.06773333-5.2832-103.5584 0-187.1296 110.82453333-187.1296 227.09973333 0 83.57226667 49.0528 139.89333333 123.5424 139.89333333 29.28533333 0 66.82346667-15.3504 92.656-40.3264v-133.92l-7.26933333 41.62026667z" fill="#A9294B" /></svg>