<?xml version="1.0" standalone="no"?><!DOCTYPE svg PUBLIC "-//W3C//DTD SVG 1.1//EN" "http://www.w3.org/Graphics/SVG/1.1/DTD/svg11.dtd"><svg class="icon" width="64px" height="64.00px" viewBox="0 0 1024 1024" version="1.1" xmlns="http://www.w3.org/2000/svg"><path d="M241.776875 136.68875h540.440625v720.6H241.776875z" fill="#FAEDD6" /><path d="M557.0375 511.998125h420.34875V241.775H557.0375v105.088125l-30.024375 30.024375 30.024375 30.024375zM466.9625 737.1875H46.61375V481.97375H466.9625v97.5825l30.024375 30.024375-30.024375 30.024375z" fill="#FFFFFF" /><path d="M241.776875 46.61375h540.440625v90.080625H241.776875zM241.776875 857.2925h540.440625v120.106875H241.776875z" fill="#FA004B" /><path d="M495.08375 120.959375h33.125625v29.2275h-33.125625zM541.829375 120.959375h29.2275v29.2275h-29.2275zM452.2175 120.959375h29.2275v29.2275h-29.2275z" fill="#36C9A3" /><path d="M227.16125 32v419.945625h29.2275V150.186875h180.230625V120.959375h-180.230625V61.2275h511.2225v59.731875h-179.008125v29.2275h179.008125v61.56375h29.2275V32zM767.61125 841.91H256.38875v-74.698125h-29.2275V992h569.6775V527.013125h-29.2275v314.896875z m-511.2225 120.8625V871.1375h511.2225v91.635H256.38875z" fill="#232323" /><path d="M286.593125 904.251875h89.6325v29.2275h-89.6325zM647.04875 904.251875h89.6325v29.2275h-89.6325z" fill="#36C9A3" /><path d="M495.08375 904.251875h33.125625v29.2275h-33.125625z" fill="#FFFFFF" /><path d="M992 526.61375H542.42375v-113.6475l-36.076875-36.07875 36.076875-36.07875v-113.6475H992v299.4525z m-420.34875-29.229375h391.12125V256.38875H571.65125v96.525l-23.97 23.971875 23.97 23.971875v96.526875zM481.57625 751.799375H32v-284.4375h449.57625v106.14375l36.07875 36.07875-36.07875 36.07875v106.13625zM61.2275 722.571875h391.12125v-89.019375l23.971875-23.971875-23.971875-23.971875V496.5875H61.2275v225.984375z" fill="#232323" /><path d="M617.82125 286.593125h134.446875v29.2275h-134.446875zM626.898125 426.681875a14.11875 14.11875 0 0 1 19.96875 0l0.294375 0.294375a14.11875 14.11875 0 1 1 19.96875 19.96875l-19.96875 19.96875-20.263125-20.263125a14.1225 14.1225 0 0 1 0-19.96875zM206.549375 651.8675a14.11875 14.11875 0 0 1 19.96875 0l0.294375 0.294375a14.11875 14.11875 0 1 1 19.96875 19.96875l-19.96875 19.970625-20.263125-20.263125a14.1225 14.1225 0 0 1 0-19.970625zM281.613125 651.8675a14.11875 14.11875 0 0 1 19.96875 0l0.294375 0.294375a14.11875 14.11875 0 1 1 19.96875 19.96875l-19.96875 19.96875-20.263125-20.263125a14.11875 14.11875 0 0 1 0-19.96875zM356.675 651.8675a14.11875 14.11875 0 0 1 19.96875 0l0.294375 0.294375a14.11875 14.11875 0 1 1 19.96875 19.96875l-19.96875 19.96875-20.263125-20.263125a14.11875 14.11875 0 0 1 0-19.96875zM701.961875 426.681875a14.11875 14.11875 0 0 1 19.96875 0l0.294375 0.294375a14.11875 14.11875 0 1 1 19.96875 19.96875l-19.96875 19.96875-20.263125-20.263125a14.11875 14.11875 0 0 1 0-19.96875zM777.021875 426.681875a14.11875 14.11875 0 0 1 19.96875 0l0.294375 0.294375a14.11875 14.11875 0 1 1 19.96875 19.96875l-19.96875 19.96875-20.263125-20.263125a14.11875 14.11875 0 0 1 0-19.96875zM852.085625 426.681875a14.11875 14.11875 0 0 1 19.96875 0l0.294375 0.294375a14.11875 14.11875 0 1 1 19.96875 19.96875l-19.96875 19.96875-20.263125-20.263125a14.11875 14.11875 0 0 1 0-19.96875z" fill="#FA004B" /><path d="M781.495625 286.593125h29.2275v29.2275h-29.2275z" fill="#36C9A3" /><path d="M617.82125 346.99625h268.895625v29.2275H617.82125z" fill="#232323" /><path d="M107.320625 528.209375h105.219375v29.2275H107.320625z" fill="#36C9A3" /><path d="M241.776875 528.209375h31.175625v29.2275h-31.175625zM107.320625 588.59375h58.455v29.2275H107.320625z" fill="#FA004B" /><path d="M196.960625 588.59375h179.263125v29.2275H196.960625z" fill="#36C9A3" /><path d="M107.320625 648.996875h58.455v29.2275H107.320625z" fill="#232323" /></svg>