<?xml version="1.0" standalone="no"?><!DOCTYPE svg PUBLIC "-//W3C//DTD SVG 1.1//EN" "http://www.w3.org/Graphics/SVG/1.1/DTD/svg11.dtd"><svg class="icon" width="64px" height="64.00px" viewBox="0 0 1024 1024" version="1.1" xmlns="http://www.w3.org/2000/svg"><path d="M186.462464 25.6m102.4 0l404.48 0q102.4 0 102.4 102.4l0 768q0 102.4-102.4 102.4l-404.48 0q-102.4 0-102.4-102.4l0-768q0-102.4 102.4-102.4Z" fill="#CCCCFF" /><path d="M769.630464 898.56V125.44a122.88 122.88 0 0 0-37.888-89.088 93.184 93.184 0 0 0-35.84-7.168h-409.6A102.4 102.4 0 0 0 226.398464 51.2h420.864a74.752 74.752 0 0 1 74.752 74.752v773.12A74.752 74.752 0 0 1 644.702464 972.8h-409.6a64 64 0 0 1-22.016-3.584 99.328 99.328 0 0 0 73.216 32.256h409.6a95.232 95.232 0 0 0 21.504-2.56 123.392 123.392 0 0 0 52.224-100.352z" fill="#FFFFFF" /><path d="M693.342464 1024h-404.48a128 128 0 0 1-128-128v-768A128 128 0 0 1 288.862464 0h404.48a128 128 0 0 1 128 128v768a128 128 0 0 1-128 128zM288.862464 51.2a76.8 76.8 0 0 0-76.8 76.8v768a76.8 76.8 0 0 0 76.8 76.8h404.48a76.8 76.8 0 0 0 76.8-76.8v-768a76.8 76.8 0 0 0-76.8-76.8z" fill="#0000FF" /><path d="M766.558464 189.44h-563.2a25.6 25.6 0 0 1 0-51.2h563.2a25.6 25.6 0 0 1 0 51.2zM766.558464 858.624h-563.2a25.6 25.6 0 0 1-25.6-25.6 25.6 25.6 0 0 1 25.6-25.6h563.2a25.6 25.6 0 0 1 25.6 25.6 25.6 25.6 0 0 1-25.6 25.6z" fill="#0000FF" /><path d="M484.958464 912.896m-34.816 0a34.816 34.816 0 1 0 69.632 0 34.816 34.816 0 1 0-69.632 0Z" fill="#0000FF" /><path d="M383.582464 672.256a25.6 25.6 0 0 1-17.92-43.52l204.8-204.8a25.6 25.6 0 0 1 36.352 0 24.576 24.576 0 0 1 0 35.84l-204.8 204.8a25.6 25.6 0 0 1-18.432 7.68zM437.854464 449.536a25.6 25.6 0 0 1-17.92-7.68 25.6 25.6 0 0 1 0-36.352l105.984-106.496a25.6 25.6 0 0 1 36.352 0 25.6 25.6 0 0 1 0 36.352L456.286464 441.856a26.112 26.112 0 0 1-18.432 7.68z" fill="#FFFFFF" /></svg>