<?xml version="1.0" standalone="no"?><!DOCTYPE svg PUBLIC "-//W3C//DTD SVG 1.1//EN" "http://www.w3.org/Graphics/SVG/1.1/DTD/svg11.dtd"><svg class="icon" width="64px" height="64.00px" viewBox="0 0 1024 1024" version="1.1" xmlns="http://www.w3.org/2000/svg"><path d="M302.48591614 302.56007385A234.02320862 234.02320862 0 0 0 238.02432251 512c13.94165039-63.27507019 46.71936036-125.10406494 97.77694702-176.19873047C386.89593506 284.68806458 448.72492981 251.92889404 512 237.98724365c-73.60153198-13.86749268-152.57949829 7.6197052-209.51408386 64.5728302z" fill="#19AAEE" /><path d="M857.76034546 736.5866394l-88.1364441-88.13644409a85.46676636 85.46676636 0 0 0-67.20542907-24.71305847c82.88978576-119.89448547 70.91331482-285.61843872-35.8367157-392.38700866-120.1725769-120.20965576-315.05905151-120.20965576-435.26870727 0-120.1725769 120.20965576-120.1725769 315.1146698 0 435.32432555 106.75003052 106.76856995 272.34420776 118.65234375 392.31285095 35.76255799-1.85394287 24.10125732 6.41464234 48.90701294 24.71305847 67.20542908l88.13644409 88.15498352c33.37097168 33.29681396 87.89543152 33.29681396 121.19224548 0 33.46366882-33.29681396 33.46366882-87.83981323 0.09269715-121.21078492zM630.83773804 630.83773804c-100.42808533 100.42808533-263.16719055 100.42808533-363.55819702 0-100.42808533-100.42808533-100.42808533-263.20426941 0-363.63235474 100.39100647-100.42808533 263.13011169-100.42808533 363.55819702 0 100.4095459 100.35392761 100.4095459 263.20426941 0 363.63235474z" fill="#19AAEE" /></svg>