<?xml version="1.0" standalone="no"?><!DOCTYPE svg PUBLIC "-//W3C//DTD SVG 1.1//EN" "http://www.w3.org/Graphics/SVG/1.1/DTD/svg11.dtd"><svg class="icon" width="64px" height="64.00px" viewBox="0 0 1024 1024" version="1.1" xmlns="http://www.w3.org/2000/svg"><path d="M514.2 959.6c-142.5 0-398.9-222.7-402.6-441.6V267.4c1.7-39.7 31.8-72.5 71.2-77.6 49.1-4.7 97.3-16.6 143-35.3 47.9-14.1 92.2-38.4 129.8-71.2 30.3-24.5 73.1-26.4 105.5-4.7 40 30.8 84 56.1 130.9 74.9 48.8 14.7 98.5 26 148.8 33.8 38.6 7.6 67.3 40.4 69.6 79.7 3.4 85.1 2.5 170.3-2.6 255.4C874 804.5 653.5 959.6 514.2 959.6z m0-844.2c-7.8-0.2-15.4 2.2-21.6 6.9-42.9 38-93.7 66-148.8 81.8-50.5 20.7-103.9 33.5-158.3 38-11.9 3.5-20.3 14-21.1 26.4V517c3.7 194.7 241.1 389.9 349.8 389.9 108.7 0 310.2-129.8 343-389.4 7.9-154.1 0-246.9 0-248-1.4-14.4-11.8-26.2-25.8-29.6-53.6-8.3-106.5-20.5-158.3-36.4-50-21.1-96.9-49-139.3-82.8-6.2-4.1-13.7-6-21.1-5.3h1.5z m0 0" fill="#29A1F7" /><path d="M751.6 427.8L491.5 673.6a35.305 35.305 0 0 1-43.3 4.2l-6.9-5.8-141.4-149.8c-13.4-14.6-12.5-37.2 2.1-50.7 14.6-13.4 37.2-12.5 50.6 2.1l117.1 124L704.1 376c14.6-13.4 37.2-12.5 50.7 2.1 13.4 14.6 12.5 37.2-2.1 50.7" fill="#29A1F7" /></svg>