<?xml version="1.0" standalone="no"?><!DOCTYPE svg PUBLIC "-//W3C//DTD SVG 1.1//EN" "http://www.w3.org/Graphics/SVG/1.1/DTD/svg11.dtd"><svg class="icon" width="64px" height="64.00px" viewBox="0 0 1024 1024" version="1.1" xmlns="http://www.w3.org/2000/svg"><path d="M377.904762 672.914286l-153.6 26.819047-117.028572 124.342857-41.447619 143.84762-7.314285 26.819047H975.238095l-92.647619-246.247619-216.990476-80.457143z" fill="#FFCB2F" /><path d="M741.180952 633.904762c117.028571-97.52381 158.47619-256 107.276191-397.409524C797.257143 95.085714 663.161905 0 512 0 360.838095 0 224.304762 95.085714 173.104762 236.495238 121.904762 377.904762 165.790476 538.819048 282.819048 633.904762 114.590476 689.980952 0 846.019048 0 1024h1024c0-177.980952-114.590476-334.019048-282.819048-390.095238zM219.428571 358.4c0-160.914286 131.657143-292.571429 292.571429-292.571429s290.133333 131.657143 290.133333 290.133334c0 160.914286-129.219048 290.133333-290.133333 290.133333-160.914286 2.438095-292.571429-126.780952-292.571429-287.695238zM382.780952 707.047619h256c153.6 0 277.942857 114.590476 297.447619 260.876191H85.333333c19.504762-148.72381 146.285714-260.87619 297.447619-260.876191z" fill="#333333" /></svg>