<?xml version="1.0" standalone="no"?><!DOCTYPE svg PUBLIC "-//W3C//DTD SVG 1.1//EN" "http://www.w3.org/Graphics/SVG/1.1/DTD/svg11.dtd"><svg class="icon" width="64px" height="64.00px" viewBox="0 0 1024 1024" version="1.1" xmlns="http://www.w3.org/2000/svg"><path d="M194.021053 21.288421c151.62386-0.538947 303.247719-0.898246 454.781754 0.179649a877.361404 877.361404 0 0 1-72.937544 70.961404c-114.077193-0.359298-228.334035-1.167719-342.411228-0.449123-81.201404-3.054035-157.013333 69.254737-156.74386 150.725614-0.269474 124.586667 0 249.173333 0 373.670175 0.359298 48.864561-0.449123 97.729123-0.449122 146.50386-0.089825 30.989474 4.401404 63.326316 21.827368 89.734737 10.24 17.515789 24.162807 32.606316 40.331228 44.912281 37.81614 35.750175 91.710877 36.289123 140.485614 34.492631 164.558596-0.628772 329.117193 0 493.67579-0.179649 79.584561 4.670877 156.384561-61.44 161.863859-141.294035 4.850526-57.487719 0.628772-115.155088 1.796492-172.642807-120.185263 3.772632-240.550175-2.425263-360.645615 2.96421-59.823158 36.738246-93.956491 113.448421-166.624561 131.592983-68.087018 16.887018-135.09614 37.905965-203.542456 53.804912 15.539649-63.955088 35.121404-126.742456 50.840702-190.517895 6.377544-26.138947 16.34807-52.277895 37.456842-70.152982C414.181053 432.954386 529.425965 314.924912 647.724912 200.129123c59.374035 56.140351 117.580351 113.538246 177.672983 168.780351-82.099649 82.90807-166.894035 163.121404-249.532632 245.490526 120.005614-3.682807 240.460351-3.503158 360.376141 0.538947-0.089825-58.565614 0.718596-117.131228-0.538948-175.607017 24.162807-24.522105 46.978246-50.750877 75.632281-70.332632 2.335439 119.646316-2.065965 239.562105 6.647017 359.028772-2.425263 20.749474-7.006316 41.319298-6.018245 62.248421 8.353684 99.525614-69.344561 198.242807-168.331228 212.435088-212.075789 1.886316-424.331228 1.347368-636.496842 0.628772-98.357895 9.611228-203.452632-74.734035-197.973334-177.313684-0.269474-209.381053-0.269474-418.762105-0.089824-628.143158C3.503158 99.705263 99.615439 18.863158 194.021053 21.288421m279.174736 461.877895c-33.324912 9.162105-58.924912 37.636491-71.949473 68.805614-23.444211 22.096842-47.517193 43.564912-70.602105 66.110877-27.845614 27.57614-29.911579 69.254737-40.061755 104.825263 37.456842-11.677193 82.009825-12.934737 109.945263-44.014035C507.508772 570.026667 620.777544 467.177544 726.411228 357.142456c-9.341754-28.564211-41.139649-44.822456-61.080702-66.829474-64.943158 63.326316-132.581053 124.317193-192.134737 192.853334z" fill="#6D6D6D" /><path d="M804.109474 49.313684c48.774737-44.822456 132.491228-36.378947 173.900351 14.282105 12.665263 16.437895 22.276491 34.85193 33.055438 52.457544 9.25193 45.720702-16.437895 87.938246-48.415438 118.298948-26.58807 24.791579-50.032281 52.816842-77.338948 76.620351-3.14386 0.179649-9.431579 0.628772-12.575438 0.808421-58.655439-51.918596-111.112982-110.66386-171.744562-160.516492 32.785965-35.480702 67.817544-68.895439 103.118597-101.950877m-2.335439 84.704562c-3.233684 5.838596-13.294035 14.910877-5.209824 21.288421 16.887018 18.952982 36.289123 35.660351 55.870877 51.649122 2.964211 2.065965 8.712982 6.197895 11.587368 8.26386-11.767018 15.449825 22.905263 30.630175 23.354386 10.419649 20.839298-24.61193 55.870877-45.630877 53.804912-82.009824 1.706667-32.067368-28.923509-61.709474-60.901052-59.284211-34.492632-2.425263-54.254035 31.169123-78.506667 49.672983z" fill="#6D6D6D" /><path d="M801.774035 134.018246c24.252632-18.50386 44.014035-52.098246 78.506667-49.672983 31.977544-2.425263 62.607719 27.216842 60.901052 59.284211 2.065965 36.378947-32.965614 57.397895-53.804912 82.009824-7.455439-4.221754-15.270175-7.635088-23.354386-10.419649-2.874386-2.065965-8.623158-6.197895-11.587368-8.26386-21.288421-20.659649-46.259649-41.588772-50.661053-72.937543zM473.195789 483.166316c59.553684-68.53614 127.191579-129.527018 192.134737-192.853334 19.941053 22.007018 51.738947 38.265263 61.080702 66.829474-105.633684 110.035088-218.902456 212.884211-325.883509 321.751579-27.935439 31.079298-72.488421 32.336842-109.945263 44.014035 10.150175-35.570526 12.21614-77.249123 40.061755-104.825263 23.084912-22.545965 47.157895-44.014035 70.602105-66.110877 25.330526-21.46807 50.661053-43.205614 71.949473-68.805614z" fill="#F6BF96" /><path d="M76.710175 616.37614c59.823158-1.527018 119.73614-0.538947 179.559299-0.628772-15.719298 63.775439-35.301053 126.562807-50.840702 190.517895 68.446316-15.898947 135.455439-36.917895 203.542456-53.804912 72.66807-18.144561 106.801404-94.854737 166.624561-131.592983 120.095439-5.389474 240.460351 0.808421 360.645615-2.96421-1.167719 57.487719 3.054035 115.155088-1.796492 172.642807-5.479298 79.854035-82.279298 145.964912-161.863859 141.294035-164.558596 0.179649-329.117193-0.449123-493.67579 0.179649-48.774737 1.796491-102.669474 1.257544-140.485614-34.492631-13.743158-14.731228-27.306667-29.552281-40.331228-44.912281-17.425965-26.408421-21.917193-58.745263-21.827368-89.734737 0-48.774737 0.808421-97.639298 0.449122-146.50386z" fill="#F6BF96" /><path d="M864.022456 215.219649c8.084211 2.784561 15.898947 6.197895 23.354386 10.419649-0.449123 20.210526-35.121404 5.030175-23.354386-10.419649z" fill="#655E4E" /><path d="M401.246316 551.97193c13.024561-31.169123 38.624561-59.643509 71.949473-68.805614-21.288421 25.6-46.618947 47.337544-71.949473 68.805614z" fill="#716753" /></svg>